name rise30.3154peak39.0474fall46.5389.mot
datacolumns 19
datarows 12
range 8.34497300000000 8.36330200000000
endheader
time	ground_force1_vx	ground_force1_vy	ground_force1_vz	ground_force1_px	ground_force1_py	ground_force1_pz	ground_force2_vx	ground_force2_vy	ground_force2_vz	ground_force2_px	ground_force2_py	ground_force2_pz	ground_torque1_x	ground_torque1_y	ground_torque1_z	ground_torque2_x	ground_torque2_y	ground_torque2_z	
8.34497300000000	50.78836500000000	739.41427599999997	69.32948399999999	0.34038800000000	0.00000000000000	0.15666100000000	0.00000000000000	0.00000000000000	0.00000000000000	0.00000000000000	0.00000000000000	0.00000000000000	0.00000000000000	29.84356300000000	0.00000000000000	0.00000000000000	0.00000000000000	0.00000000000000	
8.34663600000000	50.16592600000000	741.63061700000003	69.42279200000000	0.33927800000000	0.00000000000000	0.15664600000000	0.00000000000000	0.00000000000000	0.00000000000000	0.00000000000000	0.00000000000000	0.00000000000000	0.00000000000000	29.94219000000000	0.00000000000000	0.00000000000000	0.00000000000000	0.00000000000000	
8.34830400000000	49.54980400000000	743.75044400000002	69.51074500000000	0.33821600000000	0.00000000000000	0.15662900000000	0.00000000000000	0.00000000000000	0.00000000000000	0.00000000000000	0.00000000000000	0.00000000000000	0.00000000000000	30.03919800000000	0.00000000000000	0.00000000000000	0.00000000000000	0.00000000000000	
8.34996900000000	48.94048900000000	745.77207299999998	69.59366900000001	0.33720100000000	0.00000000000000	0.15660900000000	0.00000000000000	0.00000000000000	0.00000000000000	0.00000000000000	0.00000000000000	0.00000000000000	0.00000000000000	30.13472000000000	0.00000000000000	0.00000000000000	0.00000000000000	0.00000000000000	
8.35164200000000	48.33836500000000	747.69393100000002	69.67183400000000	0.33623300000000	0.00000000000000	0.15658700000000	0.00000000000000	0.00000000000000	0.00000000000000	0.00000000000000	0.00000000000000	0.00000000000000	0.00000000000000	30.22885700000000	0.00000000000000	0.00000000000000	0.00000000000000	0.00000000000000	
8.35330100000000	47.74371400000000	749.51457600000003	69.74545000000001	0.33531000000000	0.00000000000000	0.15656300000000	0.00000000000000	0.00000000000000	0.00000000000000	0.00000000000000	0.00000000000000	0.00000000000000	0.00000000000000	30.32167500000000	0.00000000000000	0.00000000000000	0.00000000000000	0.00000000000000	
8.35497000000000	47.15671500000000	751.23271399999999	69.81467000000001	0.33443000000000	0.00000000000000	0.15653700000000	0.00000000000000	0.00000000000000	0.00000000000000	0.00000000000000	0.00000000000000	0.00000000000000	0.00000000000000	30.41321200000000	0.00000000000000	0.00000000000000	0.00000000000000	0.00000000000000	
8.35663500000000	46.57745500000000	752.84721100000002	69.87959400000000	0.33359300000000	0.00000000000000	0.15650800000000	0.00000000000000	0.00000000000000	0.00000000000000	0.00000000000000	0.00000000000000	0.00000000000000	0.00000000000000	30.50347200000000	0.00000000000000	0.00000000000000	0.00000000000000	0.00000000000000	
8.35830800000000	46.00593100000000	754.35710800000004	69.94027100000000	0.33279700000000	0.00000000000000	0.15647700000000	0.00000000000000	0.00000000000000	0.00000000000000	0.00000000000000	0.00000000000000	0.00000000000000	0.00000000000000	30.59243300000000	0.00000000000000	0.00000000000000	0.00000000000000	0.00000000000000	
8.35997400000000	45.44205300000000	755.76163799999995	69.99670000000000	0.33204000000000	0.00000000000000	0.15644400000000	0.00000000000000	0.00000000000000	0.00000000000000	0.00000000000000	0.00000000000000	0.00000000000000	0.00000000000000	30.68004300000000	0.00000000000000	0.00000000000000	0.00000000000000	0.00000000000000	
8.36163800000000	44.88565600000000	757.06023000000005	70.04883700000001	0.33131900000000	0.00000000000000	0.15640900000000	0.00000000000000	0.00000000000000	0.00000000000000	0.00000000000000	0.00000000000000	0.00000000000000	0.00000000000000	30.76622500000000	0.00000000000000	0.00000000000000	0.00000000000000	0.00000000000000	
8.36330200000000	44.33649800000000	758.25252799999998	70.09659600000001	0.33063300000000	0.00000000000000	0.15637200000000	0.00000000000000	0.00000000000000	0.00000000000000	0.00000000000000	0.00000000000000	0.00000000000000	0.00000000000000	30.85087800000000	0.00000000000000	0.00000000000000	0.00000000000000	0.00000000000000	
